<svg xmlns="http://www.w3.org/2000/svg" width="64" height="65" viewBox="0 0 64 65"><g fill="none"><circle cx="31.7" cy="32.4" r="31.7" fill="#00B346"/><path fill="#FEFEFE" d="M36.7 19.3c-3.6-1.1-7.2-1.9-10.9-2.8-2.5-.6-2.5-.6-3.2 2-.4 1.3-.2 1.8 1.2 2.1 2 .4 2.4 1 1.9 3.1l-1.2 4.8c-.2.7-.5.9-1.1.7-1.3-.4-2.6-.6-3.9-1-1.2-.4-1.5 0-1.7 1.1 0 .2-.1.5-.2.7-.3.8-.1 1.2.8 1.4 1.4.3 2.8.7 4.2 1 .5.1.8.2.6.9-.6 2.3-1.2 4.6-1.8 7-.3 1-1 1.4-2.1 1.2-2.5-.4-2.5-.4-3.1 2.1 0 .2 0 .4-.1.6-.4.8.1 1 .7 1.2 4.1 1 8.1 2.1 12.2 3 8.2 1.7 14.8-2.2 17.3-10.1.5-1.7.8-3.4.8-5.2.2-6.8-3.6-11.8-10.4-13.8zm-.6 22.9c-2.1 2.1-5.6 2.6-8.2 1.4-.7-.3-.9-.7-.7-1.4.6-2.5 1.2-4.9 1.8-7.4.2-.7.4-.8 1.1-.6 1.4.4 2.8.6 4.2 1.1.7.2 1 0 1.1-.6.6-2.9 1-2.2-1.6-2.9-.1 0-.3-.1-.4-.1-3.4-.8-3.4-.8-2.6-4.2.3-1.3.7-2.6 1-3.9.2-.8.4-1 1.3-.8 5 1.3 7.2 4.1 7.2 9.8-.1 3.2-1.3 6.8-4.2 9.6z"/></g></svg>