<svg xmlns="http://www.w3.org/2000/svg" width="64" height="64" viewBox="0 0 64 64"><path fill="#FBD200" d="M63.4 30.1c0-.9-.1-1.7-.2-2.6-.1-1-.3-1.9-.5-2.9-.2-.9-.5-1.9-.8-2.8-.4-1.1-.8-2.3-1.3-3.3s-1-2-1.5-2.9c-.7-1.2-1.5-2.3-2.3-3.4-.6-.8-1.3-1.6-1.9-2.3-.9-.9-1.7-1.7-2.7-2.5-1-.8-1.9-1.5-3-2.2-1.5-1-3-1.8-4.7-2.6-1.6-.7-3.3-1.3-5-1.7-1.1-.3-2.2-.5-3.3-.7-.6-.1-1.3-.2-1.9-.2h-3.8c-.9 0-1.7.1-2.6.2-.8.1-1.6.2-2.4.4-1.5.3-2.9.7-4.3 1.2-1.3.5-2.6 1-3.8 1.6-1.3.7-2.6 1.4-3.9 2.3-1.4 1-2.7 2.1-4 3.3l-1.4 1.4c-.5.5-1 1.1-1.4 1.7-.6.7-1.1 1.5-1.7 2.3-.6.9-1.1 1.8-1.6 2.8-.3.6-.6 1.3-.9 1.9-.6 1.3-1 2.6-1.4 4C.7 24.4.5 25.7.3 27c-.1.9-.2 1.8-.2 2.7v3.9c0 .6 0 1.2.1 1.8.1.9.2 1.7.4 2.6.3 1.4.7 2.9 1.2 4.2.4 1.1.8 2.1 1.3 3.2.4.9.9 1.7 1.4 2.6.7 1.1 1.4 2.2 2.2 3.2.7.9 1.4 1.7 2.2 2.5.6.6 1.2 1.2 1.9 1.8.8.7 1.5 1.3 2.4 1.9 1.3.9 2.6 1.8 4.1 2.5.8.4 1.6.8 2.4 1.1 1.5.6 3 1.1 4.6 1.5.9.2 1.8.4 2.8.5.6.1 1.3.2 1.9.2.6 0 1.2.1 1.8.1H34c.5 0 1.1 0 1.6-.1 1-.1 2-.3 2.9-.5 1.8-.4 3.5-.9 5.2-1.6 1.1-.4 2.2-1 3.3-1.5.7-.4 1.5-.8 2.2-1.3 1.1-.7 2.2-1.5 3.2-2.4.7-.6 1.3-1.2 2-1.8.5-.5.9-.9 1.3-1.4l1.5-1.8c.6-.8 1.2-1.6 1.7-2.5.6-.9 1.1-1.9 1.6-2.8.4-.8.8-1.6 1.1-2.5.4-1.1.8-2.2 1.1-3.3.3-1.1.5-2.2.7-3.4.1-.7.2-1.5.3-2.2v-1.7c-.3-.8-.3-1.6-.3-2.4zm-16.9 1.4c0 1.5-.2 3-.7 4.4-.8 2.1-2.1 3.8-4.1 4.9-1.4.9-3 1.4-4.7 1.6-.7.1-1.4.2-2.1.2-.1 0-.1 0-.1.1v1.9c0 .1 0 .1.2.1h3.8c.1 0 .2 0 .2.2v2.5c0 .2 0 .2-.2.2h-3.7c-.2 0-.2 0-.2.2v2.9c0 .2 0 .2-.2.2h-6.1c-.2 0-.2-.1-.2-.2v-3c0-.1 0-.2-.2-.2h-3.5c-.2 0-.2 0-.2-.3v-2.5c0-.1 0-.2.2-.2h3.6c.1 0 .2 0 .2-.2v-1.8c0-.2 0-.2-.2-.2-2 0-4-.5-5.8-1.4-2.5-1.3-4.1-3.3-4.9-5.9-.4-1.3-.6-2.7-.6-4.1V17.5c0-.1 0-.2.2-.2h6c.2 0 .2 0 .2.2v13.6c0 .9.1 1.8.4 2.7.6 1.6 1.7 2.6 3.4 3 .4.1.8.2 1.3.2.1 0 .1 0 .1-.1V17.5c0-.2 0-.2.2-.2h6c.2 0 .2 0 .2.2v19.3c0 .2 0 .2.2.2 1.4-.1 2.6-.5 3.6-1.5.7-.7 1-1.5 1.2-2.4.2-.7.2-1.4.2-2.1V17.5c0-.2 0-.2.2-.2h6c.2 0 .2 0 .2.2-.1 4.8-.1 9.4-.1 14z"/></svg>